<mxfile host="65bd71144e">
    <diagram id="qDqhm69coQtU0eocqUjB" name="ページ1">
        <mxGraphModel dx="763" dy="589" grid="0" gridSize="10" guides="1" tooltips="1" connect="1" arrows="1" fold="1" page="0" pageScale="1" pageWidth="827" pageHeight="1169" background="#ffffff" math="0" shadow="0">
            <root>
                <mxCell id="0"/>
                <mxCell id="1" parent="0"/>
                <mxCell id="6" value="" style="outlineConnect=0;fontColor=#232F3E;gradientColor=none;fillColor=#232F3E;strokeColor=none;dashed=0;verticalLabelPosition=bottom;verticalAlign=top;align=center;html=1;fontSize=12;fontStyle=0;aspect=fixed;pointerEvents=1;shape=mxgraph.aws4.user;" vertex="1" parent="1">
                    <mxGeometry x="51" y="286" width="38" height="38" as="geometry"/>
                </mxCell>
                <mxCell id="19" value="" style="group" vertex="1" connectable="0" parent="1">
                    <mxGeometry x="381" y="280" width="90" height="31" as="geometry"/>
                </mxCell>
                <mxCell id="12" value="" style="endArrow=classic;html=1;strokeColor=#000000;strokeWidth=2;" edge="1" parent="19">
                    <mxGeometry y="2" width="50" height="50" as="geometry">
                        <mxPoint y="31" as="sourcePoint"/>
                        <mxPoint x="90" y="31" as="targetPoint"/>
                    </mxGeometry>
                </mxCell>
                <mxCell id="13" value="&lt;font color=&quot;#000000&quot; style=&quot;font-size: 16px&quot;&gt;app:3000&lt;/font&gt;" style="text;html=1;strokeColor=none;fillColor=none;align=center;verticalAlign=middle;whiteSpace=wrap;rounded=0;" vertex="1" parent="19">
                    <mxGeometry x="13.25" width="63.5" height="20" as="geometry"/>
                </mxCell>
                <mxCell id="29" value="" style="group" vertex="1" connectable="0" parent="1">
                    <mxGeometry x="261" y="259.25" width="100" height="99" as="geometry"/>
                </mxCell>
                <mxCell id="26" value="" style="rounded=1;whiteSpace=wrap;html=1;fillColor=none;strokeColor=#000000;strokeWidth=1;" vertex="1" parent="29">
                    <mxGeometry width="100" height="99" as="geometry"/>
                </mxCell>
                <mxCell id="14" value="" style="shape=image;verticalLabelPosition=bottom;labelBackgroundColor=#ffffff;verticalAlign=top;aspect=fixed;imageAspect=0;image=https://cdn.icon-icons.com/icons2/2699/PNG/512/nginx_logo_icon_169915.png;" vertex="1" parent="29">
                    <mxGeometry x="20" y="19.5" width="60" height="60" as="geometry"/>
                </mxCell>
                <mxCell id="2" value="" style="aspect=fixed;html=1;points=[];align=center;image;fontSize=12;image=img/lib/mscae/Docker.svg;" vertex="1" parent="29">
                    <mxGeometry x="-20" y="-17" width="50" height="41" as="geometry"/>
                </mxCell>
                <mxCell id="7" value="" style="endArrow=classic;html=1;strokeColor=#000000;strokeWidth=2;" edge="1" parent="1">
                    <mxGeometry x="108" y="282" width="50" height="50" as="geometry">
                        <mxPoint x="108" y="311" as="sourcePoint"/>
                        <mxPoint x="222" y="311" as="targetPoint"/>
                    </mxGeometry>
                </mxCell>
                <mxCell id="8" value="&lt;font color=&quot;#000000&quot; style=&quot;font-size: 16px&quot;&gt;localhost:8080&lt;/font&gt;" style="text;html=1;strokeColor=none;fillColor=none;align=center;verticalAlign=middle;whiteSpace=wrap;rounded=0;" vertex="1" parent="1">
                    <mxGeometry x="109" y="280" width="119" height="20" as="geometry"/>
                </mxCell>
                <mxCell id="30" value="" style="group" vertex="1" connectable="0" parent="1">
                    <mxGeometry x="488" y="256.5" width="100" height="99" as="geometry"/>
                </mxCell>
                <mxCell id="25" value="" style="shape=image;verticalLabelPosition=bottom;labelBackgroundColor=#ffffff;verticalAlign=top;aspect=fixed;imageAspect=0;image=https://the-guild.dev/blog-assets/nodejs-esm/nodejs_logo.png;" vertex="1" parent="30">
                    <mxGeometry x="20" y="16.170000000000016" width="60" height="66.66" as="geometry"/>
                </mxCell>
                <mxCell id="31" value="" style="group" vertex="1" connectable="0" parent="30">
                    <mxGeometry x="-20" y="-18" width="120" height="117" as="geometry"/>
                </mxCell>
                <mxCell id="28" value="" style="rounded=1;whiteSpace=wrap;html=1;fillColor=none;strokeColor=#000000;strokeWidth=1;" vertex="1" parent="31">
                    <mxGeometry x="20" y="18" width="100" height="99" as="geometry"/>
                </mxCell>
                <mxCell id="4" value="" style="aspect=fixed;html=1;points=[];align=center;image;fontSize=12;image=img/lib/mscae/Docker.svg;" vertex="1" parent="31">
                    <mxGeometry width="50" height="41" as="geometry"/>
                </mxCell>
                <mxCell id="39" value="" style="group" vertex="1" connectable="0" parent="1">
                    <mxGeometry x="607" y="286" width="90" height="31" as="geometry"/>
                </mxCell>
                <mxCell id="35" value="" style="group" vertex="1" connectable="0" parent="39">
                    <mxGeometry width="90" height="31" as="geometry"/>
                </mxCell>
                <mxCell id="36" value="" style="endArrow=classic;html=1;strokeColor=#000000;strokeWidth=2;" edge="1" parent="35">
                    <mxGeometry y="2" width="50" height="50" as="geometry">
                        <mxPoint y="31" as="sourcePoint"/>
                        <mxPoint x="90" y="31" as="targetPoint"/>
                    </mxGeometry>
                </mxCell>
                <mxCell id="37" value="&lt;font color=&quot;#000000&quot; style=&quot;font-size: 16px&quot;&gt;db:3306&lt;/font&gt;" style="text;html=1;strokeColor=none;fillColor=none;align=center;verticalAlign=middle;whiteSpace=wrap;rounded=0;" vertex="1" parent="39">
                    <mxGeometry x="13.25" y="5.5" width="63.5" height="20" as="geometry"/>
                </mxCell>
                <mxCell id="44" value="" style="group" vertex="1" connectable="0" parent="1">
                    <mxGeometry x="701" y="241.25000000000003" width="120" height="117" as="geometry"/>
                </mxCell>
                <mxCell id="45" value="" style="rounded=1;whiteSpace=wrap;html=1;fillColor=none;strokeColor=#000000;strokeWidth=1;" vertex="1" parent="44">
                    <mxGeometry x="20" y="18" width="100" height="99" as="geometry"/>
                </mxCell>
                <mxCell id="46" value="" style="aspect=fixed;html=1;points=[];align=center;image;fontSize=12;image=img/lib/mscae/Docker.svg;" vertex="1" parent="44">
                    <mxGeometry width="50" height="41" as="geometry"/>
                </mxCell>
                <mxCell id="41" value="" style="shape=image;verticalLabelPosition=bottom;labelBackgroundColor=#ffffff;verticalAlign=top;aspect=fixed;imageAspect=0;image=https://pngimg.com/uploads/mysql/mysql_PNG29.png;" vertex="1" parent="44">
                    <mxGeometry x="32.49000000000001" y="29.99000000000001" width="75.01" height="75.01" as="geometry"/>
                </mxCell>
                <mxCell id="47" value="" style="group" vertex="1" connectable="0" parent="1">
                    <mxGeometry x="230" y="109" width="633" height="308.25" as="geometry"/>
                </mxCell>
                <mxCell id="40" value="" style="rounded=1;whiteSpace=wrap;html=1;strokeColor=#000000;strokeWidth=1;fillColor=none;" vertex="1" parent="47">
                    <mxGeometry y="91.25" width="633" height="217" as="geometry"/>
                </mxCell>
                <mxCell id="5" value="" style="shape=image;verticalLabelPosition=bottom;labelBackgroundColor=#ffffff;verticalAlign=top;aspect=fixed;imageAspect=0;image=https://raw.githubusercontent.com/docker/compose/master/logo.png;" vertex="1" parent="47">
                    <mxGeometry x="90" width="113" height="123.73" as="geometry"/>
                </mxCell>
            </root>
        </mxGraphModel>
    </diagram>
</mxfile>
